<svg width="119" height="118" viewBox="0 0 119 118" fill="none" xmlns="http://www.w3.org/2000/svg">
<path d="M39.4221 94.2826H45.568V60.1118C47.9444 59.784 49.9725 58.6982 51.6523 56.8545C53.3322 55.0107 54.1721 52.8876 54.1721 50.485V31.5951C54.1721 30.7757 53.8771 30.0996 53.2871 29.567C52.6971 29.0344 52.0088 28.768 51.2221 28.768C50.4027 28.768 49.7267 29.0344 49.194 29.567C48.6614 30.0996 48.3951 30.7605 48.3951 31.5496V46.3451H45.6909V31.5496C45.6909 30.7605 45.4246 30.0996 44.8919 29.567C44.3593 29.0344 43.6832 28.768 42.8638 28.768C42.0444 28.768 41.3683 29.0344 40.8357 29.567C40.303 30.0996 40.0367 30.7605 40.0367 31.5496V46.3451H36.4721V31.5496C36.4721 30.7605 36.2058 30.0996 35.6732 29.567C35.1405 29.0344 34.4645 28.768 33.6451 28.768C32.8256 28.768 32.1496 29.0344 31.6169 29.567C31.0843 30.0996 30.818 30.7757 30.818 31.5951V50.485C30.818 52.8876 31.6374 55.0107 33.2763 56.8545C34.9152 58.6982 36.9638 59.784 39.4221 60.1118V94.2826ZM70.5201 94.2826H76.6659V61.5868C79.5339 60.4396 81.7874 58.3951 83.4263 55.4532C85.0652 52.5123 85.8846 49.0665 85.8846 45.116C85.8846 40.4451 84.7497 36.5528 82.4798 33.4389C80.2092 30.325 77.3616 28.768 73.9371 28.768C70.5119 28.768 67.693 30.325 65.4805 33.4389C63.268 36.5528 62.1617 40.4451 62.1617 45.116C62.1617 49.2951 62.8992 52.8187 64.3742 55.6868C65.8492 58.5548 67.8978 60.5215 70.5201 61.5868V94.2826ZM17.543 108.172C15.5763 108.172 13.8555 107.435 12.3805 105.96C10.9055 104.485 10.168 102.764 10.168 100.797V17.2139C10.168 15.2472 10.9055 13.5264 12.3805 12.0514C13.8555 10.5764 15.5763 9.83887 17.543 9.83887H101.126C103.093 9.83887 104.814 10.5764 106.289 12.0514C107.764 13.5264 108.501 15.2472 108.501 17.2139V100.797C108.501 102.764 107.764 104.485 106.289 105.96C104.814 107.435 103.093 108.172 101.126 108.172H17.543ZM17.543 100.797H101.126V17.2139H17.543V100.797Z" fill="#1F1F1F"/>
</svg>
