<svg width="49" height="49" viewBox="0 0 49 49" fill="none" xmlns="http://www.w3.org/2000/svg">
<path d="M28.75 44.5061C27.7833 44.5061 26.85 44.3061 25.95 43.9061C25.05 43.5061 24.3 42.9227 23.7 42.1561L12.85 28.3561L13.9 27.2061C14.3667 26.7061 14.9417 26.3977 15.625 26.2811C16.3083 26.1644 16.95 26.2727 17.55 26.6061L22.5 29.2561V8.00605C22.5 7.58105 22.6447 7.22472 22.934 6.93705C23.223 6.64972 23.5813 6.50605 24.009 6.50605C24.4363 6.50605 24.7917 6.64972 25.075 6.93705C25.3583 7.22472 25.5 7.58105 25.5 8.00605V34.2561L18.3 30.4061L26.1 40.3061C26.4333 40.7061 26.8293 41.0061 27.288 41.2061C27.7467 41.4061 28.234 41.5061 28.75 41.5061H39C40.2667 41.5061 41.3333 41.0727 42.2 40.2061C43.0667 39.3394 43.5 38.2727 43.5 37.0061V22.0061C43.5 21.5811 43.6447 21.2247 43.934 20.9371C44.223 20.6497 44.5813 20.5061 45.009 20.5061C45.4363 20.5061 45.7917 20.6497 46.075 20.9371C46.3583 21.2247 46.5 21.5811 46.5 22.0061V37.0061C46.5 39.1061 45.775 40.8811 44.325 42.3311C42.875 43.7811 41.1 44.5061 39 44.5061H28.75ZM29.5 26.5061V16.0061C29.5 15.5811 29.6447 15.2247 29.934 14.9371C30.223 14.6497 30.5813 14.5061 31.009 14.5061C31.4363 14.5061 31.7917 14.6497 32.075 14.9371C32.3583 15.2247 32.5 15.5811 32.5 16.0061V26.5061H29.5ZM36.5 26.5061V18.0061C36.5 17.5811 36.6447 17.2247 36.934 16.9371C37.223 16.6497 37.5813 16.5061 38.009 16.5061C38.4363 16.5061 38.7917 16.6497 39.075 16.9371C39.3583 17.2247 39.5 17.5811 39.5 18.0061V26.5061H36.5ZM9.5 20.5061C7.56667 20.5061 5.91667 19.8394 4.55 18.5061C3.18333 17.1727 2.5 15.5394 2.5 13.6061C2.5 12.2061 2.91667 10.9477 3.75 9.83105C4.58333 8.71439 5.45 7.62272 6.35 6.55605L9.5 2.95605L12.65 6.60605C13.55 7.67272 14.4167 8.75605 15.25 9.85605C16.0833 10.9561 16.5 12.2061 16.5 13.6061C16.5 15.5394 15.8167 17.1727 14.45 18.5061C13.0833 19.8394 11.4333 20.5061 9.5 20.5061ZM9.488 17.5061C10.596 17.5061 11.5417 17.1251 12.325 16.3631C13.1083 15.6011 13.5 14.6821 13.5 13.6061C13.5 12.6061 13.158 11.7259 12.474 10.9656C11.79 10.2056 11.1153 9.43572 10.45 8.65605L9.45 7.60605L8.5 8.65605L6.5 10.9561C5.83333 11.7227 5.5 12.6061 5.5 13.6061C5.5 14.6821 5.88767 15.6011 6.663 16.3631C7.43867 17.1251 8.38033 17.5061 9.488 17.5061Z" fill="#1F1F1F"/>
</svg>
