<svg width="49" height="49" viewBox="0 0 49 49" fill="none" xmlns="http://www.w3.org/2000/svg">
<path d="M6.5 44.5059V32.5059C6.5 30.9725 7.03467 29.6725 8.104 28.6059C9.17367 27.5392 10.4723 27.0059 12 27.0059H16C18.5 27.0059 20.2083 26.4559 21.125 25.3559C22.0417 24.2559 22.5 22.9725 22.5 21.5059C22.5 20.4392 22.2125 19.5892 21.6375 18.9559C21.0625 18.3225 20.35 18.0059 19.5 18.0059C18.675 18.0059 17.9688 17.712 17.3815 17.1244C16.7938 16.537 16.5 15.8309 16.5 15.0059V4.50586H19.5V15.0059C21.2333 15.0059 22.6667 15.6142 23.8 16.8309C24.9333 18.0475 25.5 19.6059 25.5 21.5059C25.5 23.8059 24.75 25.7975 23.25 27.4809C21.75 29.1642 19.3333 30.0059 16 30.0059H12C11.2917 30.0059 10.698 30.2454 10.219 30.7244C9.73967 31.2037 9.5 31.7975 9.5 32.5059V44.5059H6.5ZM18.5 44.5059H15.5V40.5059C15.5 38.9725 16.0347 37.6725 17.104 36.6059C18.1737 35.5392 19.4723 35.0059 21 35.0059H29C31.9333 35.0059 34.4167 33.9892 36.45 31.9559C38.4833 29.9225 39.5 27.4392 39.5 24.5059V22.5059C39.5 19.5725 38.4 17.0892 36.2 15.0559C34 13.0225 31.4333 12.0059 28.5 12.0059C27.675 12.0059 26.9688 11.712 26.3815 11.1244C25.7938 10.537 25.5 9.83086 25.5 9.00586V4.50586H28.5V9.00586C32.2333 9.00586 35.5 10.3225 38.3 12.9559C41.1 15.5892 42.5 18.7725 42.5 22.5059V24.5059C42.5 28.2392 41.1833 31.4225 38.55 34.0559C35.9167 36.6892 32.7333 38.0059 29 38.0059H21C20.2917 38.0059 19.698 38.2454 19.219 38.7244C18.7397 39.2037 18.5 39.7975 18.5 40.5059V44.5059Z" fill="#1F1F1F"/>
</svg>
