<svg width="49" height="49" viewBox="0 0 49 49" fill="none" xmlns="http://www.w3.org/2000/svg">
<path d="M24.5 17.9059C22.6497 17.9059 21.0703 17.2519 19.762 15.9439C18.454 14.6355 17.8 13.0562 17.8 11.2059C17.8 9.35553 18.454 7.77619 19.762 6.46786C21.0703 5.15986 22.6497 4.50586 24.5 4.50586C26.3503 4.50586 27.9297 5.15986 29.238 6.46786C30.546 7.77619 31.2 9.35553 31.2 11.2059C31.2 13.0562 30.546 14.6355 29.238 15.9439C27.9297 17.2519 26.3503 17.9059 24.5 17.9059ZM24.5 14.9059C25.6 14.9059 26.4917 14.5642 27.175 13.8809C27.8583 13.1975 28.2 12.3059 28.2 11.2059C28.2 10.1059 27.8583 9.21419 27.175 8.53086C26.4917 7.84753 25.6 7.50586 24.5 7.50586C23.4 7.50586 22.5083 7.84753 21.825 8.53086C21.1417 9.21419 20.8 10.1059 20.8 11.2059C20.8 12.3059 21.1417 13.1975 21.825 13.8809C22.5083 14.5642 23.4 14.9059 24.5 14.9059ZM24.5 44.5059L12.5 32.5059C11.9 31.9059 11.4167 31.1642 11.05 30.2809C10.6833 29.3975 10.5 28.3725 10.5 27.2059C10.5 25.3392 11.1583 23.7475 12.475 22.4309C13.7917 21.1142 15.3833 20.4559 17.25 20.4559C18.13 20.4559 18.9417 20.6559 19.685 21.0559C20.4283 21.4559 21.0833 21.9392 21.65 22.5059L24.5 25.3559L27.35 22.5059C27.9167 21.9392 28.5717 21.4559 29.315 21.0559C30.0583 20.6559 30.87 20.4559 31.75 20.4559C33.6167 20.4559 35.2083 21.1142 36.525 22.4309C37.8417 23.7475 38.5 25.3392 38.5 27.2059C38.5 28.3725 38.3167 29.3975 37.95 30.2809C37.5833 31.1642 37.1 31.9059 36.5 32.5059L24.5 44.5059ZM24.5 40.1559L34.3 30.3559C34.7 29.9622 35 29.5137 35.2 29.0104C35.4 28.5074 35.5 27.9059 35.5 27.2059C35.5 26.2059 35.125 25.3309 34.375 24.5809C33.625 23.8309 32.7482 23.4559 31.7445 23.4559C31.2815 23.4559 30.85 23.5392 30.45 23.7059C30.05 23.8725 29.7167 24.0892 29.45 24.3559L24.5 29.3059L19.55 24.3559C19.2833 24.0892 18.95 23.8725 18.55 23.7059C18.15 23.5392 17.7167 23.4559 17.25 23.4559C16.25 23.4559 15.375 23.8309 14.625 24.5809C13.875 25.3309 13.5 26.2059 13.5 27.2059C13.5 27.9059 13.6 28.5059 13.8 29.0059C14 29.5059 14.3 29.9559 14.7 30.3559L24.5 40.1559Z" fill="#1F1F1F"/>
</svg>
