<svg width="49" height="49" viewBox="0 0 49 49" fill="none" xmlns="http://www.w3.org/2000/svg">
<path d="M13.55 40.5059C12.6833 40.5059 11.9667 40.2225 11.4 39.6559C10.8333 39.0892 10.55 38.3725 10.55 37.5059C10.55 36.9059 10.7 36.3309 11 35.7809C11.3 35.2309 11.7333 34.8392 12.3 34.6059L20.9 31.2059V24.3059C18.7 27.0059 16.4667 29.0392 14.2 30.4059C11.9333 31.7725 9.36667 32.4559 6.5 32.4559V29.4559C8.76667 29.4559 10.8333 28.9309 12.7 27.8809C14.5667 26.8309 16.25 25.3559 17.75 23.4559L20.65 20.2059C20.9833 19.8059 21.375 19.4725 21.825 19.2059C22.275 18.9392 22.7667 18.8059 23.3 18.8059H25.7C26.2333 18.8059 26.7333 18.9392 27.2 19.2059C27.6667 19.4725 28.0667 19.8059 28.4 20.2059L31.3 23.4559C32.9 25.2892 34.6 26.7475 36.4 27.8309C38.2 28.9142 40.2333 29.4559 42.5 29.4559V32.4559C39.6667 32.4559 37.1083 31.7725 34.825 30.4059C32.5417 29.0392 30.3 27.0059 28.1 24.3059V31.2059L36.7 34.6059C37.2667 34.8392 37.7 35.2309 38 35.7809C38.3 36.3309 38.45 36.9059 38.45 37.5059C38.45 38.3725 38.1667 39.0892 37.6 39.6559C37.0333 40.2225 36.3167 40.5059 35.45 40.5059H20.3V39.9559C20.3 39.0892 20.5667 38.3892 21.1 37.8559C21.6333 37.3225 22.3333 37.0559 23.2 37.0559H29.85C30.1167 37.0559 30.35 36.9559 30.55 36.7559C30.75 36.5559 30.85 36.3225 30.85 36.0559C30.85 35.7892 30.75 35.5559 30.55 35.3559C30.35 35.1559 30.1167 35.0559 29.85 35.0559H23.2C21.7333 35.0559 20.5667 35.5059 19.7 36.4059C18.8333 37.3059 18.4 38.4892 18.4 39.9559V40.5059H13.55ZM24.5 15.8059C23.5 15.8059 22.6417 15.4475 21.925 14.7309C21.2083 14.0142 20.85 13.1559 20.85 12.1559C20.85 11.1559 21.2083 10.2975 21.925 9.58086C22.6417 8.86419 23.5 8.50586 24.5 8.50586C25.5 8.50586 26.3583 8.86419 27.075 9.58086C27.7917 10.2975 28.15 11.1559 28.15 12.1559C28.15 13.1559 27.7917 14.0142 27.075 14.7309C26.3583 15.4475 25.5 15.8059 24.5 15.8059Z" fill="#1F1F1F"/>
</svg>
