<svg width="49" height="49" viewBox="0 0 49 49" fill="none" xmlns="http://www.w3.org/2000/svg">
<path d="M4.5 20.0059V11.5059C4.5 10.7059 4.8 10.0059 5.4 9.40586C6 8.80586 6.7 8.50586 7.5 8.50586H41.5C42.3 8.50586 43 8.80586 43.6 9.40586C44.2 10.0059 44.5 10.7059 44.5 11.5059V24.5059H41.5V11.5059H7.5V20.0059H4.5ZM14.5 34.0059C14.2 34.0059 13.9333 33.9392 13.7 33.8059C13.4667 33.6725 13.2667 33.4725 13.1 33.2059L9.55 26.0059H4.5V23.0059H10.5C10.7603 23.0059 11.0087 23.0809 11.245 23.2309C11.4817 23.3809 11.6667 23.5892 11.8 23.8559L14.5 29.1559L21.15 15.8559C21.2833 15.5892 21.473 15.3975 21.719 15.2809C21.965 15.1642 22.2233 15.1059 22.494 15.1059C22.7647 15.1059 23.025 15.1642 23.275 15.2809C23.525 15.3975 23.7167 15.5892 23.85 15.8559L27.85 23.9059C27.4167 24.1725 27 24.4809 26.6 24.8309C26.2 25.1809 25.8167 25.5392 25.45 25.9059L22.5 19.9059L15.8 33.2059C15.6797 33.4725 15.4992 33.6725 15.2585 33.8059C15.0175 33.9392 14.7647 34.0059 14.5 34.0059ZM23.55 40.5059H7.5C6.7 40.5059 6 40.2059 5.4 39.6059C4.8 39.0059 4.5 38.3059 4.5 37.5059V29.0059H7.5V37.5059H22.35C22.4833 38.0392 22.65 38.5559 22.85 39.0559C23.05 39.5559 23.2833 40.0392 23.55 40.5059ZM34.4945 44.0059C31.8648 44.0059 29.625 43.079 27.775 41.2254C25.925 39.372 25 37.1304 25 34.5004C25 31.8707 25.9268 29.6309 27.7805 27.7809C29.6338 25.9309 31.8755 25.0059 34.5055 25.0059C37.1352 25.0059 39.375 25.9327 41.225 27.7864C43.075 29.6397 44 31.8814 44 34.5114C44 37.141 43.0732 39.3809 41.2195 41.2309C39.3662 43.0809 37.1245 44.0059 34.4945 44.0059ZM34.9 35.5059L39.45 30.9559L38.05 29.5559L33.5 34.1059L34.9 35.5059Z" fill="#1F1F1F"/>
</svg>
