<svg width="49" height="49" viewBox="0 0 49 49" fill="none" xmlns="http://www.w3.org/2000/svg">
<path d="M4.5 44.5059C4.5 40.9392 5.01667 37.8559 6.05 35.2559C7.08333 32.6559 8.4 30.4975 10 28.7809C11.6 27.0642 13.375 25.7309 15.325 24.7809C17.275 23.8309 19.1667 23.2225 21 22.9559V16.0059C16.4333 15.4392 12.5417 14.1142 9.325 12.0309C6.10833 9.94753 4.5 7.43919 4.5 4.50586H44.5C44.5 7.43919 42.8917 9.94753 39.675 12.0309C36.4583 14.1142 32.5667 15.4392 28 16.0059V22.9559C29.8333 23.2225 31.725 23.8309 33.675 24.7809C35.625 25.7309 37.4 27.0642 39 28.7809C40.6 30.4975 41.9167 32.6559 42.95 35.2559C43.9833 37.8559 44.5 40.9392 44.5 44.5059H32.5V41.5059H41.35C40.75 36.4392 38.9 32.5309 35.8 29.7809C32.7 27.0309 28.9333 25.6559 24.5 25.6559C20.0667 25.6559 16.3 27.0309 13.2 29.7809C10.1 32.5309 8.25 36.4392 7.65 41.5059H16.5V44.5059H4.5ZM24.5 13.2559C28.0333 13.2559 31.3 12.6475 34.3 11.4309C37.3 10.2142 39.2833 8.90586 40.25 7.50586H8.75C9.71667 8.90586 11.7 10.2142 14.7 11.4309C17.7 12.6475 20.9667 13.2559 24.5 13.2559ZM24.5 44.5059C23.4 44.5059 22.4583 44.1142 21.675 43.3309C20.8917 42.5475 20.5 41.6059 20.5 40.5059C20.5 39.9392 20.6083 39.4225 20.825 38.9559C21.0417 38.4892 21.3333 38.0725 21.7 37.7059C22.5 36.9059 23.875 36.0725 25.825 35.2059C27.775 34.3392 30 33.4392 32.5 32.5059C31.5333 35.0059 30.625 37.2309 29.775 39.1809C28.925 41.1309 28.1 42.5059 27.3 43.3059C26.9333 43.6725 26.5167 43.9642 26.05 44.1809C25.5833 44.3975 25.0667 44.5059 24.5 44.5059Z" fill="#1F1F1F"/>
</svg>
