<svg width="49" height="49" viewBox="0 0 49 49" fill="none" xmlns="http://www.w3.org/2000/svg">
<path d="M19.25 43.4059L17.65 40.3059C17.3853 39.7689 17.1942 39.2162 17.0765 38.6479C16.9588 38.0795 16.9 37.4954 16.9 36.8954C16.9 36.169 17.0003 35.4597 17.201 34.7674C17.4017 34.075 17.718 33.4212 18.15 32.8059C18.4167 32.3725 18.6333 31.9262 18.8 31.4669C18.9667 31.0075 19.05 30.5205 19.05 30.0059C19.05 29.4362 18.95 28.902 18.75 28.4034C18.55 27.905 18.3167 27.4059 18.05 26.9059C17.7833 26.3059 17.5417 25.6889 17.325 25.0549C17.1083 24.4212 17 23.7715 17 23.1059V15.0059C17 14.0335 16.6917 13.2072 16.075 12.5269C15.4583 11.8462 14.6833 11.5059 13.75 11.5059C12.8833 11.5059 12.1417 11.7809 11.525 12.3309C10.9083 12.8809 10.5667 13.5559 10.5 14.3559C11.6623 14.7919 12.6197 15.5214 13.372 16.5444C14.124 17.5674 14.5 18.716 14.5 19.9904C14.5 21.6674 13.9167 23.0892 12.75 24.2559C11.5833 25.4225 10.1667 26.0059 8.5 26.0059C6.83333 26.0059 5.41667 25.4225 4.25 24.2559C3.08333 23.0892 2.5 21.6725 2.5 20.0059C2.5 18.5059 2.975 17.2059 3.925 16.1059C4.875 15.0059 6.06667 14.3392 7.5 14.1059C7.63333 12.5059 8.299 11.1725 9.497 10.1059C10.6947 9.03919 12.1123 8.50586 13.75 8.50586C14.0057 8.50586 14.2612 8.52253 14.5165 8.55586C14.7722 8.58919 15.0122 8.63919 15.2365 8.70586C16.6455 7.87253 18.1298 7.29753 19.6895 6.98086C21.2488 6.66419 22.8485 6.50586 24.4885 6.50586C26.0962 6.50586 27.6833 6.66419 29.25 6.98086C30.8167 7.29753 32.3045 7.87253 33.7135 8.70586C33.9378 8.63919 34.1778 8.58919 34.4335 8.55586C34.6888 8.52253 34.9443 8.50586 35.2 8.50586C36.8333 8.50586 38.25 9.03086 39.45 10.0809C40.65 11.1309 41.3167 12.4559 41.45 14.0559C42.8833 14.2892 44.0833 14.9642 45.05 16.0809C46.0167 17.1975 46.5 18.5059 46.5 20.0059C46.5 21.6725 45.9167 23.0892 44.75 24.2559C43.5833 25.4225 42.1667 26.0059 40.5 26.0059C38.8333 26.0059 37.4167 25.4225 36.25 24.2559C35.0833 23.0892 34.5 21.6725 34.5 20.0059C34.5 18.7059 34.8667 17.5475 35.6 16.5309C36.3333 15.5142 37.2833 14.7892 38.45 14.3559C38.3833 13.5225 38.0388 12.8392 37.4165 12.3059C36.7945 11.7725 36.0557 11.5059 35.2 11.5059C34.296 11.5059 33.5367 11.8462 32.922 12.5269C32.3073 13.2072 32 14.0335 32 15.0059V23.1059C32 23.7709 31.8833 24.42 31.65 25.0534C31.4167 25.6867 31.15 26.3042 30.85 26.9059C30.6167 27.4049 30.4083 27.9039 30.225 28.4029C30.0417 28.9022 29.95 29.437 29.95 30.0074C29.95 30.5064 30.025 30.9975 30.175 31.4809C30.325 31.9642 30.5333 32.4059 30.8 32.8059C31.2333 33.4059 31.5583 34.0594 31.775 34.7664C31.9917 35.473 32.1 36.1877 32.1 36.9104C32.1 37.5074 32.0293 38.0889 31.888 38.6549C31.747 39.2209 31.551 39.7712 31.3 40.3059L29.7 43.4059L27 42.0559L28.55 38.9559C28.7167 38.6225 28.85 38.287 28.95 37.9494C29.05 37.612 29.1 37.2559 29.1 36.8809C29.1 36.4309 29.0333 36.0059 28.9 35.6059C28.7667 35.2059 28.5667 34.8225 28.3 34.4559C27.8333 33.7892 27.4917 33.085 27.275 32.3434C27.0583 31.6017 26.95 30.8445 26.95 30.0719C26.95 29.3612 27.0583 28.6809 27.275 28.0309C27.4917 27.3809 27.7667 26.7392 28.1 26.1059C28.3333 25.6392 28.5417 25.1534 28.725 24.6484C28.9083 24.1437 29 23.6295 29 23.1059V14.9854C29 14.1307 29.15 13.3204 29.45 12.5544C29.75 11.7887 30.1667 11.1225 30.7 10.5559C29.7333 10.1892 28.7257 9.92253 27.677 9.75586C26.628 9.58919 25.5697 9.50586 24.502 9.50586C23.434 9.50586 22.375 9.58919 21.325 9.75586C20.275 9.92253 19.2667 10.1892 18.3 10.5559C18.8333 11.1225 19.25 11.7887 19.55 12.5544C19.85 13.3204 20 14.1307 20 14.9854V23.1059C20 23.6392 20.0833 24.1559 20.25 24.6559C20.4167 25.1559 20.6333 25.6392 20.9 26.1059C21.2 26.7392 21.4667 27.3809 21.7 28.0309C21.9333 28.6809 22.05 29.3572 22.05 30.0599C22.05 30.8239 21.9293 31.5802 21.688 32.3289C21.4467 33.0779 21.1007 33.7869 20.65 34.4559C20.3833 34.8225 20.1917 35.21 20.075 35.6184C19.9583 36.0267 19.9 36.4535 19.9 36.8989C19.9 37.2702 19.9417 37.6225 20.025 37.9559C20.1083 38.2892 20.2333 38.6225 20.4 38.9559L21.95 42.0559L19.25 43.4059ZM8.5 23.0059C9.35 23.0059 10.0625 22.7184 10.6375 22.1434C11.2125 21.5684 11.5 20.8559 11.5 20.0059C11.5 19.1559 11.2125 18.4434 10.6375 17.8684C10.0625 17.2934 9.35 17.0059 8.5 17.0059C7.65 17.0059 6.9375 17.2934 6.3625 17.8684C5.7875 18.4434 5.5 19.1559 5.5 20.0059C5.5 20.8559 5.7875 21.5684 6.3625 22.1434C6.9375 22.7184 7.65 23.0059 8.5 23.0059ZM40.5 23.0059C41.35 23.0059 42.0625 22.7184 42.6375 22.1434C43.2125 21.5684 43.5 20.8559 43.5 20.0059C43.5 19.1559 43.2125 18.4434 42.6375 17.8684C42.0625 17.2934 41.35 17.0059 40.5 17.0059C39.65 17.0059 38.9375 17.2934 38.3625 17.8684C37.7875 18.4434 37.5 19.1559 37.5 20.0059C37.5 20.8559 37.7875 21.5684 38.3625 22.1434C38.9375 22.7184 39.65 23.0059 40.5 23.0059Z" fill="#1F1F1F"/>
</svg>
