<svg width="22" height="25" viewBox="0 0 22 25" fill="none" xmlns="http://www.w3.org/2000/svg">
<path d="M19.9094 8.97319H19.3331V6.19254C19.3331 6.1752 19.3304 6.15772 19.3281 6.14016C19.3272 6.02975 19.292 5.9213 19.2164 5.83537L14.5891 0.549456L14.5854 0.546144C14.5578 0.515338 14.5257 0.489717 14.4917 0.467539C14.4816 0.460785 14.4715 0.45512 14.4609 0.449282C14.4315 0.433203 14.4002 0.41987 14.3681 0.41024C14.3594 0.4078 14.3515 0.404227 14.3428 0.401961C14.3079 0.393683 14.2716 0.388497 14.2348 0.388497H2.86257C2.34326 0.388497 1.92139 0.810849 1.92139 1.32972V8.97297H1.34523C0.602352 8.97297 0 9.57506 0 10.3182V17.3136C0 18.0562 0.602352 18.6587 1.34523 18.6587H1.92143V23.4473C1.92143 23.9661 2.34331 24.3885 2.86261 24.3885H18.392C18.9108 24.3885 19.3332 23.9661 19.3332 23.4473V18.6587H19.9095C20.6521 18.6587 21.2546 18.0562 21.2546 17.3136V10.3184C21.2546 9.57532 20.6521 8.97319 19.9094 8.97319ZM2.86257 1.32989H13.7642V6.14526C13.7642 6.40526 13.9751 6.61585 14.2348 6.61585H18.392V8.97349H2.86257V1.32989ZM18.392 23.1925H2.86257V18.6587H18.392L18.392 23.1925Z" fill="white"/>
</svg>
