<svg width="49" height="49" viewBox="0 0 49 49" fill="none" xmlns="http://www.w3.org/2000/svg">
<path d="M15.4 25.7059L22.55 20.5059L15.4 15.3059L13.6 17.7059L17.45 20.5059L13.6 23.3059L15.4 25.7059ZM33.6 25.7059L35.4 23.3059L31.55 20.5059L35.4 17.7059L33.6 15.3059L26.45 20.5059L33.6 25.7059ZM21.5 34.6059L24.5 31.6059L27.5 34.6059L30.5 31.6059L32.45 33.5559L34.55 31.4559L30.5 27.4059L27.5 30.4059L24.5 27.4059L21.5 30.4059L18.5 27.4059L14.45 31.4559L16.55 33.5559L18.5 31.6059L21.5 34.6059ZM24.5 44.5059C21.7333 44.5059 19.1333 43.9809 16.7 42.9309C14.2667 41.8809 12.15 40.4559 10.35 38.6559C8.55 36.8559 7.125 34.7392 6.075 32.3059C5.025 29.8725 4.5 27.2725 4.5 24.5059C4.5 21.7392 5.025 19.1392 6.075 16.7059C7.125 14.2725 8.55 12.1559 10.35 10.3559C12.15 8.55586 14.2667 7.13086 16.7 6.08086C19.1333 5.03086 21.7333 4.50586 24.5 4.50586C27.2667 4.50586 29.8667 5.03086 32.3 6.08086C34.7333 7.13086 36.85 8.55586 38.65 10.3559C40.45 12.1559 41.875 14.2725 42.925 16.7059C43.975 19.1392 44.5 21.7392 44.5 24.5059C44.5 27.2725 43.975 29.8725 42.925 32.3059C41.875 34.7392 40.45 36.8559 38.65 38.6559C36.85 40.4559 34.7333 41.8809 32.3 42.9309C29.8667 43.9809 27.2667 44.5059 24.5 44.5059ZM24.5 41.5059C29.246 41.5059 33.2658 39.859 36.5595 36.5654C39.8532 33.2714 41.5 29.2515 41.5 24.5059C41.5 19.7599 39.8532 15.74 36.5595 12.4464C33.2658 9.15269 29.246 7.50586 24.5 7.50586C19.7543 7.50586 15.7345 9.15269 12.4405 12.4464C9.14683 15.74 7.5 19.7599 7.5 24.5059C7.5 29.2515 9.14683 33.2714 12.4405 36.5654C15.7345 39.859 19.7543 41.5059 24.5 41.5059Z" fill="#1F1F1F"/>
</svg>
