<svg width="49" height="49" viewBox="0 0 49 49" fill="none" xmlns="http://www.w3.org/2000/svg">
<path d="M20 35.5058C20.8333 35.5058 21.5417 35.2141 22.125 34.6308C22.7083 34.0474 23 33.3391 23 32.5058C23 30.8391 22.4583 29.2224 21.375 27.6558C20.2917 26.0891 18.8333 24.7558 17 23.6558V32.5058C17 33.3391 17.2917 34.0474 17.875 34.6308C18.4583 35.2141 19.1667 35.5058 20 35.5058ZM29 35.5058C29.8333 35.5058 30.5417 35.2141 31.125 34.6308C31.7083 34.0474 32 33.3391 32 32.5058V23.6558C30.1667 24.7558 28.7083 26.0891 27.625 27.6558C26.5417 29.2224 26 30.8391 26 32.5058C26 33.3391 26.2917 34.0474 26.875 34.6308C27.4583 35.2141 28.1667 35.5058 29 35.5058ZM4.95 41.7558L4 38.9058C5.33333 38.3391 6.41667 37.4558 7.25 36.2558C8.08333 35.0558 8.5 33.7058 8.5 32.2058V9.85576C7.86667 9.0891 7.28333 8.29743 6.75 7.48076C6.21667 6.6641 5.73333 5.7891 5.3 4.85576L8.1 3.65576C9.56667 6.95576 11.7667 9.55576 14.7 11.4558C17.6333 13.3558 20.9 14.3058 24.5 14.3058C28.1 14.3058 31.3667 13.3558 34.3 11.4558C37.2333 9.55576 39.4333 6.95576 40.9 3.65576L43.7 4.85576C43.2667 5.75576 42.7833 6.62243 42.25 7.45576C41.7167 8.2891 41.1333 9.0891 40.5 9.85576V32.2058C40.5 33.7058 40.9167 35.0558 41.75 36.2558C42.5833 37.4558 43.6667 38.3391 45 38.9058L44.05 41.7558C42.0833 40.9891 40.5 39.7391 39.3 38.0058C38.1 36.2724 37.5 34.3391 37.5 32.2058V12.7558C35.6667 14.2224 33.6417 15.3474 31.425 16.1308C29.2083 16.9141 26.9 17.3058 24.5 17.3058C22.1 17.3058 19.7917 16.9141 17.575 16.1308C15.3583 15.3474 13.3333 14.2224 11.5 12.7558V32.2058C11.5 34.3391 10.9 36.2724 9.7 38.0058C8.5 39.7391 6.91667 40.9891 4.95 41.7558ZM20 38.5058C18.3333 38.5058 16.9167 37.9224 15.75 36.7558C14.5833 35.5891 14 34.1724 14 32.5058V19.9558L16.7 20.6058C18.4 21.0391 19.925 21.7808 21.275 22.8308C22.625 23.8808 23.7 25.1558 24.5 26.6558C25.3 25.1558 26.375 23.8808 27.725 22.8308C29.075 21.7808 30.6 21.0391 32.3 20.6058L35 19.9558V32.5058C35 34.1724 34.4167 35.5891 33.25 36.7558C32.0833 37.9224 30.6667 38.5058 29 38.5058C28.1 38.5058 27.2667 38.3224 26.5 37.9558C25.7333 37.5891 25.0667 37.0891 24.5 36.4558C23.9333 37.0891 23.2667 37.5891 22.5 37.9558C21.7333 38.3224 20.9 38.5058 20 38.5058Z" fill="#1F1F1F"/>
</svg>
