<svg width="49" height="49" viewBox="0 0 49 49" fill="none" xmlns="http://www.w3.org/2000/svg">
<path d="M15.9641 28.9721C15.3974 28.9721 14.9224 28.7805 14.5391 28.3971C14.1557 28.0138 13.9641 27.5388 13.9641 26.9721C13.9641 26.4055 14.1557 25.9305 14.5391 25.5471C14.9224 25.1638 15.3974 24.9721 15.9641 24.9721C16.5307 24.9721 17.0057 25.1638 17.3891 25.5471C17.7724 25.9305 17.9641 26.4055 17.9641 26.9721C17.9641 27.5388 17.7724 28.0138 17.3891 28.3971C17.0057 28.7805 16.5307 28.9721 15.9641 28.9721ZM24.8141 28.9721C24.2474 28.9721 23.7724 28.7805 23.3891 28.3971C23.0057 28.0138 22.8141 27.5388 22.8141 26.9721C22.8141 26.4055 23.0057 25.9305 23.3891 25.5471C23.7724 25.1638 24.2474 24.9721 24.8141 24.9721C25.3807 24.9721 25.8557 25.1638 26.2391 25.5471C26.6224 25.9305 26.8141 26.4055 26.8141 26.9721C26.8141 27.5388 26.6224 28.0138 26.2391 28.3971C25.8557 28.7805 25.3807 28.9721 24.8141 28.9721ZM33.3141 28.9721C32.7474 28.9721 32.2724 28.7805 31.8891 28.3971C31.5057 28.0138 31.3141 27.5388 31.3141 26.9721C31.3141 26.4055 31.5057 25.9305 31.8891 25.5471C32.2724 25.1638 32.7474 24.9721 33.3141 24.9721C33.8807 24.9721 34.3557 25.1638 34.7391 25.5471C35.1224 25.9305 35.3141 26.4055 35.3141 26.9721C35.3141 27.5388 35.1224 28.0138 34.7391 28.3971C34.3557 28.7805 33.8807 28.9721 33.3141 28.9721ZM9.66406 44.6721C8.86406 44.6721 8.16406 44.3721 7.56406 43.7721C6.96406 43.1721 6.66406 42.4721 6.66406 41.6721V10.6721C6.66406 9.87212 6.96406 9.17212 7.56406 8.57212C8.16406 7.97212 8.86406 7.67212 9.66406 7.67212H12.9141V4.67212H16.1641V7.67212H33.1641V4.67212H36.4141V7.67212H39.6641C40.4641 7.67212 41.1641 7.97212 41.7641 8.57212C42.3641 9.17212 42.6641 9.87212 42.6641 10.6721V41.6721C42.6641 42.4721 42.3641 43.1721 41.7641 43.7721C41.1641 44.3721 40.4641 44.6721 39.6641 44.6721H9.66406ZM9.66406 41.6721H39.6641V20.1721H9.66406V41.6721ZM9.66406 17.1721H39.6641V10.6721H9.66406V17.1721Z" fill="#1F1F1F"/>
</svg>
