<svg width="49" height="49" viewBox="0 0 49 49" fill="none" xmlns="http://www.w3.org/2000/svg">
<path d="M24.332 44.6721C21.5654 44.6721 18.9654 44.1471 16.532 43.0971C14.0987 42.0471 11.982 40.6221 10.182 38.8221C8.38203 37.0221 6.95703 34.9055 5.90703 32.4721C4.85703 30.0388 4.33203 27.4388 4.33203 24.6721C4.33203 21.9055 4.85703 19.3055 5.90703 16.8721C6.95703 14.4388 8.38203 12.3221 10.182 10.5221C11.982 8.72212 14.0987 7.29712 16.532 6.24712C18.9654 5.19712 21.5654 4.67212 24.332 4.67212H41.332C42.0987 4.67212 42.7904 4.98045 43.407 5.59712C44.0237 6.21379 44.332 6.90545 44.332 7.67212V24.6721C44.332 27.4388 43.807 30.0388 42.757 32.4721C41.707 34.9055 40.282 37.0221 38.482 38.8221C36.682 40.6221 34.5654 42.0471 32.132 43.0971C29.6987 44.1471 27.0987 44.6721 24.332 44.6721ZM24.332 41.6721C29.078 41.6721 33.0979 40.0253 36.3915 36.7316C39.6852 33.4376 41.332 29.4178 41.332 24.6721V7.67212H24.332C19.5864 7.67212 15.5665 9.31895 12.2725 12.6126C8.97886 15.9063 7.33203 19.9261 7.33203 24.6721C7.33203 29.4178 8.97886 33.4376 12.2725 36.7316C15.5665 40.0253 19.5864 41.6721 24.332 41.6721ZM14.532 30.5721H28.232V26.2221L34.532 30.5721V18.8721L28.232 23.2221V18.8721H14.532V30.5721Z" fill="#1F1F1F"/>
</svg>
